# xmcd
# Track frame offsets:
# 150
# 13060
# 29585
# 44670
# 69978
# 83248
# 104232
# 114967
# 137777
# 166047
# 188790
# 198220
#
# Disc length: 2859 seconds
# Revision: 0
# Processed by: cddbd v1.5.2PL0 Copyright (c) Steve Scherf et al.
# Submitted via: VisiTrax 2.10.3.257 - For more info visit www.synapsa.com
#
DISCID=a30b290c
DTITLE=Bob Dylan - Greatest hits
DYEAR=1980
DGENRE=Blues
TTITLE0=Blowin' in the wind
TTITLE1=It ain't me baby
TTITLE2=The times they are a-changin'
TTITLE3=Mr. Tambourine man
TTITLE4=She belongs to me
TTITLE5=It's all over now baby blue
TTITLE6=Subterranean homesick blues
TTITLE7=One of US must know
TTITLE8=Like a rolling stone
TTITLE9=Just like a woman
TTITLE10=Rainy day women nos. 12 and 35
TTITLE11=I want you
EXTD=Da musicassetta
EXTT0=
EXTT1=
EXTT2=
EXTT3=
EXTT4=
EXTT5=
EXTT6=
EXTT7=
EXTT8=
EXTT9=
EXTT10=
EXTT11=
PLAYORDER=
